<svg xmlns="http://www.w3.org/2000/svg" viewBox="0 0 980 980" fill="none" shape-rendering="auto"><metadata xmlns:rdf="http://www.w3.org/1999/02/22-rdf-syntax-ns#" xmlns:xsi="http://www.w3.org/2001/XMLSchema-instance" xmlns:dc="http://purl.org/dc/elements/1.1/" xmlns:dcterms="http://purl.org/dc/terms/"><rdf:RDF><rdf:Description><dc:title>Lorelei</dc:title><dc:creator>Lisa Wischofsky</dc:creator><dc:source xsi:type="dcterms:URI">https://www.figma.com/community/file/1198749693280469639</dc:source><dcterms:license xsi:type="dcterms:URI">https://creativecommons.org/publicdomain/zero/1.0/</dcterms:license><dc:rights>Remix of „Lorelei” (https://www.figma.com/community/file/1198749693280469639) by „Lisa Wischofsky”, licensed under „CC0 1.0” (https://creativecommons.org/publicdomain/zero/1.0/)</dc:rights></rdf:Description></rdf:RDF></metadata><mask id="viewboxMask"><rect width="980" height="980" rx="117.6" ry="117.6" x="0" y="0" fill="#fff" /></mask><g mask="url(#viewboxMask)"><rect fill="url(#backgroundLinear)" width="980" height="980" x="0" y="0" /><defs><linearGradient id="backgroundLinear" gradientTransform="rotate(305 0.5 0.5)"><stop stop-color="#c48a2e"/><stop offset="1" stop-color="#ffd86f"/></linearGradient></defs><g transform="translate(10 -60)"><path d="M498 134c4 0 8 0 12 2 3 1 4 5 3 8-1 2-4 4-7 5l-8 9a98 98 0 0 1 62 1c14 5 28 12 40 21 10 7 20 15 31 21 14 8 30 14 46 17l40 8c19 3 37 8 54 17 15 7 30 16 40 29 7 10 9 22 5 34-5 11-15 19-22 29-2 4-6 9-6 13 1 5 6 9 9 12l34 19c8 5 15 11 20 19 6 7 9 16 8 25 0 6-2 13-5 18-3 7-10 12-16 17l-21 22c-6 8-11 20-7 30 2 5 4 11 10 13l21 10c23 15 38 43 38 71 0 19-7 37-20 51a62 62 0 0 1-47 18c-4-1-8-1-12 1-6 2-9 9-9 16 2 14 8 27 11 41 2 10 2 21-1 32-3 8-7 16-13 22-7 6-16 10-26 10-11 0-21-5-32-8a58 58 0 0 0-51 15c0 8 4 16 12 20 3 2 6 1 10 1 2 0 3 3 3 5-1 5-3 10-6 14a104 104 0 0 1-54 30l-15 1c-9 1-19 0-29-1-24-2-49-6-74-7-12 0-25 3-37 4l-17 4-29 4a264 264 0 0 1-103-15c-9-4-17-8-23-15-8-7-12-18-12-28l4-24c1-4 1-10-2-13-4-5-10-9-16-10-8-2-17-3-23-8-7-4-9-12-9-19-1-12 4-23 10-34l20-31 4-12 5-40c-9-5-19-10-27-17-6-4-10-9-14-15a72 72 0 0 1-15-44c-1-7 1-15-2-22-2-8-8-12-12-19l-15-20c-6-10-10-22-13-33-7-26-8-54 0-79 7-21 19-40 35-55l34-28 11-14c5-10 8-20 15-29 8-14 23-24 38-29 7-2 15-4 22-3 8 2 15 4 22 8a150 150 0 0 1 80-87c13-5 27-9 41-8Z" fill="#000000"/><path d="M495 231a231 231 0 0 1 219 204c1 10 2 21 0 30-1 4-1 7-4 8-3-10-3-19-4-29a220 220 0 0 0-239-205c-42 4-83 19-117 44l-17 13a221 221 0 0 0-78 164c0 23 7 43 15 64h17c3 1 4 4 2 6l-6 2c-15 1-31 7-42 17-8 9-14 19-16 31-3 15 0 32 8 45 9 15 24 27 40 33 14 5 29 7 43 5 4-1 8-2 11 0v3c-5 5-11 6-18 7-16 3-33-1-47-8a86 86 0 0 1-47-58c-4-18-1-37 9-53 8-12 20-21 34-26-7-14-10-28-12-43-2-18-2-35 0-53 1-13 4-25 8-38a227 227 0 0 1 99-122c41-28 92-43 142-41Z" fill="#000"/><path d="M535 244a220 220 0 0 1 171 200c1 10 1 19 4 29l-2 18v22c-3 4-4 9-4 14-2 8-2 15-2 23v65c0 21-3 42-11 61-4 13-10 24-18 35-10 12-21 22-34 31-11 9-24 17-37 24l-22 14-12 8 9-2c-3 11-3 24-4 36 0 8 1 16 7 22a235 235 0 0 0 81 45c6 7 11 16 13 25 1 9 0 18-4 27-6 10-14 18-23 24-13 10-28 17-43 22a417 417 0 0 1-217 11c-16-3-33-9-48-17-10-5-21-12-28-21-6-6-10-14-11-22-2-10 0-21 5-30 21-13 39-32 49-54 5-11 7-22 8-34 1-16 0-32-1-47-2-20-3-41-8-61 11 12 23 24 37 32 17 11 36 20 55 26 20 7 41 13 63 18l25 3c3 0 6 0 8-2 2-1 1-2 2-3l-17-2c-29-7-58-16-87-27-18-7-36-15-53-27-18-13-33-30-47-47l-11-16-1-1v-3c-3-2-7-1-11 0-14 2-29 0-43-5-16-6-31-18-40-33-8-13-11-30-8-45 2-12 8-22 16-31 11-10 27-16 42-17l6-2c2-2 1-5-2-6h-17c-8-21-15-41-15-64-1-14 2-27 5-41a221 221 0 0 1 73-123l17-13a230 230 0 0 1 185-39Z" fill="#ffffff"/><path d="M708 513c3 3 2 7 3 12v29c0 26 2 54 0 80-3 31-14 63-36 86-25 28-57 51-93 64l2 7v35c1 6 4 10 8 14l26 19 32 20 24 12c2 0 3 1 5 3l-19-5c-19-6-37-14-54-25-9-5-19-12-26-20-6-6-7-14-7-22 1-12 1-25 4-36l-9 2 12-8 22-14c13-7 26-15 37-24 13-9 24-19 34-31a178 178 0 0 0 29-96v-65c0-8 0-15 2-23 0-5 1-10 4-14ZM278 574c5 5 4 14 0 19l-3 7c1 3 5 5 7 6 6 3 12 7 19 9 0 4-3 5-7 5-6-1-13-3-18-6-7-3-13-8-13-16 0-6 5-9 6-14 2-4 0-7-1-11 4-1 7-2 10 1ZM328 667l11 16c14 17 29 34 47 47 17 12 35 20 53 27a714 714 0 0 0 104 29c-1 1 0 2-2 3-2 2-5 2-8 2l-25-3a478 478 0 0 1-118-44c-14-8-26-20-37-32 5 20 6 41 8 61 1 15 2 31 1 47-1 12-3 23-8 34-10 22-28 41-49 54l-14 8c2-4 6-6 9-9 13-11 24-25 34-39 6-10 12-21 14-33 4-19 3-39 3-58l-3-59 2-10c-10-11-19-26-22-41Z" fill="#000"/><path d="M455 468c14 0 27 5 38 13 15 10 26 25 30 43v14c-1 1-2 2-4 1-3-3-5-8-7-12-8-14-18-28-32-36-10-6-22-8-33-6 7 12 11 26 11 40 0 9-4 16-8 24-2 2-5 1-7 1-7 0-13-2-20-4-3-2-8-4-10-8l-1-14 4-19-6 8c-3 4-10 4-13 0-3-3-3-8-1-12 6-8 13-16 22-22 11-8 24-11 37-11ZM684 488c2 1 3 3 0 4l-15 8c5 0 10-1 15 2 3 1 6 5 6 9-4 4-9 7-15 7-15 0-30 3-44 10-3 1-8 2-11-1-4-3-4-9-2-12 2-4 5-6 8-8l45-17c4-1 9-3 13-2Z" fill="#000000"/><path d="M533 358c6 2 9 8 10 14 0 8-3 16-7 22-3 3-7 4-10 1-4-3-2-10-2-15l-13 10c-6 4-13 7-20 9-9 4-19 5-30 8l-25 8c-8 3-15 8-22 12l-25 17c-5 3-8 7-11 12-2-4-1-8 1-11a401 401 0 0 1 35-29c16-13 36-21 55-28l28-11c8-4 14-11 21-16 5-2 10-4 15-3ZM626 376l6 7c17 7 33 7 49 16 4 2 7 6 9 10s1 8-2 12l-16-6c-12-6-24-7-36-11-7-3-14-4-19-10-4 8-4 17-8 26-1 1-1 4-4 3l-1-8 2-11c1-8 4-16 7-23 2-6 8-8 13-5Z" fill="#000000"/><path d="m591 528 2 2 7 22c4 8 10 15 15 23 4 6 6 13 5 20-1 6-4 12-9 16-7 7-16 12-25 16-5 3-11 4-17 2l5-4c11-9 25-14 36-24 2-2 4-6 4-9-1-7-5-11-8-16-5-9-10-16-13-25-2-7-4-16-2-23Z" fill="#000000"/><path fill-rule="evenodd" clip-rule="evenodd" d="m463 648-14-4h-1c-2-1-5-1-6 1-1 1 0 3 1 3l6 3 2 1a257 257 0 0 0 73 24c0 7 2 14 7 20 5 7 12 13 21 16 10 4 21 3 31-1s18-12 22-22c2-4 2-9 2-13l18-6v-1l2-2a1497 1497 0 0 0-29 0 324 324 0 0 1-86-4l-39-11-2-1-8-3Zm69 29c1 10 9 18 18 23 12 9 32 5 40-8 3-4 4-9 5-14v-1l-26 2 1 1c0 3 1 5-1 8s-6 3-7 0c-2-3-2-6-1-9a1036 1036 0 0 0-25-2h-4Z" fill="#000000"/><path d="M507 135c3 0 6 2 7 6 0 4-4 6-6 8-4 2-7 5-10 9a99 99 0 0 1 60 1c15 5 29 12 42 21 10 7 21 15 32 21 8 5 17 9 26 12 18 6 36 8 55 12a226 226 0 0 1 82 32c8 6 15 13 19 22 5 9 5 21 0 30-5 10-14 17-20 26-2 4-6 9-6 13 1 5 5 8 8 11 15 11 34 17 47 30 10 8 17 20 16 33 0 8-3 17-8 23-5 7-12 13-18 19-8 7-16 15-21 24-3 7-5 17-1 24 3 8 12 13 19 16 5 2 10 4 14 8 1 3 1 7-1 10-5 6-13 11-21 13-16 5-33 4-49-1-13-3-24-8-34-16-9-6-16-15-21-25-10-16-13-35-14-54v-33l-1-6c-6-5-13-9-21-10-11-2-22-3-33-8-7-3-12-9-16-15s-5-13-7-20l-6-17c-1-4-5-8-10-11-4-3-10-2-14-1-7 3-14 5-22 5-15 0-31-2-45-10-8-5-14-13-17-22-4-7-4-14-6-22-6 8-12 17-21 23 5 17 2 35-7 50-7 13-17 24-28 34l-31 22c-18 13-36 24-50 41-6 9-13 20-13 31 0 6 4 9 6 14 4 7 6 17 5 25-3 11-12 20-16 30-3 9-5 19-2 28 2 8 7 15 14 19l13 5h11c3 0 4 3 3 5l-5 8-17 7c-9 3-19 4-29 4-8 0-17-2-25-4-9-3-18-8-27-13-7-4-15-9-21-15a76 76 0 0 1-24-60c0-6 0-11-2-17-2-8-8-12-12-19l-14-19a153 153 0 0 1-15-108 129 129 0 0 1 41-65l29-23c5-4 8-9 11-15 6-9 9-19 15-28 8-14 23-24 39-29 6-2 14-4 21-3 8 2 15 4 22 8a149 149 0 0 1 74-84c6-3 12-6 18-7 12-4 25-5 38-3Z" fill="#000000"/></g><g transform="translate(10 -60)"></g></g></svg>