<svg xmlns="http://www.w3.org/2000/svg" viewBox="0 0 980 980" fill="none" shape-rendering="auto"><metadata xmlns:rdf="http://www.w3.org/1999/02/22-rdf-syntax-ns#" xmlns:xsi="http://www.w3.org/2001/XMLSchema-instance" xmlns:dc="http://purl.org/dc/elements/1.1/" xmlns:dcterms="http://purl.org/dc/terms/"><rdf:RDF><rdf:Description><dc:title>Lorelei</dc:title><dc:creator>Lisa Wischofsky</dc:creator><dc:source xsi:type="dcterms:URI">https://www.figma.com/community/file/1198749693280469639</dc:source><dcterms:license xsi:type="dcterms:URI">https://creativecommons.org/publicdomain/zero/1.0/</dcterms:license><dc:rights>Remix of „Lorelei” (https://www.figma.com/community/file/1198749693280469639) by „Lisa Wischofsky”, licensed under „CC0 1.0” (https://creativecommons.org/publicdomain/zero/1.0/)</dc:rights></rdf:Description></rdf:RDF></metadata><mask id="viewboxMask"><rect width="980" height="980" rx="117.6" ry="117.6" x="0" y="0" fill="#fff" /></mask><g mask="url(#viewboxMask)"><rect fill="url(#backgroundLinear)" width="980" height="980" x="0" y="0" /><defs><linearGradient id="backgroundLinear" gradientTransform="rotate(132 0.5 0.5)"><stop stop-color="#5a9b47"/><stop offset="1" stop-color="#a6f0d4"/></linearGradient></defs><g transform="translate(10 -60)"><path d="m405 197-2 7-4 12c17-4 33-6 50-7 20-1 41 0 62 3 18 2 36 7 54 11l57 17c15 4 30 8 46 10 4 1 7 1 10 4l-3 4c-2 3-5 3-8 5 10 7 19 15 27 23l16 20c3 4 6 9 7 14v5l-13 7c4 12 8 24 8 37 0 10 1 21-3 31-1 3-1 6-4 7-4 1-7-2-9-5a328 328 0 0 1-42-64l-14-3 6 10c1 1 3 3 2 5-1 3-4 3-7 4-14 3-30 1-44-2-22-6-43-14-64-23l-24-13c-5-1-9-4-13-6-3-1-6-2-7-5l6-7-2-3c-3-1-7 1-11 1-6 0-12 1-17 3l2-12c0-2-3-4-4-2-4 2-6 5-9 8l-10 12-3 1-24-6-8 1c-2 1-2 3 0 4 3 4 6 7 8 12 0 9-5 17-10 24-9 11-19 21-31 29l-21 14c-4 2-6 5-6 8l-1 29c0 3 0 6-2 9-15 15-28 32-34 53-4 15-3 29-2 44v21l-1 9c-1 4-4 7-8 8-10 3-20 8-32 8-5 0-7 4-12 2s-6-7-8-11c-21-46-31-96-27-147 2-29 9-58 22-84 11-23 26-44 45-61a194 194 0 0 1 57-34l5-2a176 176 0 0 1 48-40c2-1 5-1 6 1Z" fill="#000000"/><path d="M495 231a231 231 0 0 1 219 204c1 10 2 21 0 30-1 4-1 7-4 8-3-10-3-19-4-29a220 220 0 0 0-239-205c-42 4-83 19-117 44l-17 13a221 221 0 0 0-78 164c0 23 7 43 15 64h17c3 1 4 4 2 6l-6 2c-15 1-31 7-42 17-8 9-14 19-16 31-3 15 0 32 8 45 9 15 24 27 40 33 14 5 29 7 43 5 4-1 8-2 11 0v3c-5 5-11 6-18 7-16 3-33-1-47-8a86 86 0 0 1-47-58c-4-18-1-37 9-53 8-12 20-21 34-26-7-14-10-28-12-43-2-18-2-35 0-53 1-13 4-25 8-38a227 227 0 0 1 99-122c41-28 92-43 142-41Z" fill="#000"/><path d="M535 244a220 220 0 0 1 171 200c1 10 1 19 4 29l-2 18v22c-3 4-4 9-4 14-2 8-2 15-2 23v65c0 21-3 42-11 61-4 13-10 24-18 35-10 12-21 22-34 31-11 9-24 17-37 24l-22 14-12 8 9-2c-3 11-3 24-4 36 0 8 1 16 7 22a235 235 0 0 0 81 45c6 7 11 16 13 25 1 9 0 18-4 27-6 10-14 18-23 24-13 10-28 17-43 22a417 417 0 0 1-217 11c-16-3-33-9-48-17-10-5-21-12-28-21-6-6-10-14-11-22-2-10 0-21 5-30 21-13 39-32 49-54 5-11 7-22 8-34 1-16 0-32-1-47-2-20-3-41-8-61 11 12 23 24 37 32 17 11 36 20 55 26 20 7 41 13 63 18l25 3c3 0 6 0 8-2 2-1 1-2 2-3l-17-2c-29-7-58-16-87-27-18-7-36-15-53-27-18-13-33-30-47-47l-11-16-1-1v-3c-3-2-7-1-11 0-14 2-29 0-43-5-16-6-31-18-40-33-8-13-11-30-8-45 2-12 8-22 16-31 11-10 27-16 42-17l6-2c2-2 1-5-2-6h-17c-8-21-15-41-15-64-1-14 2-27 5-41a221 221 0 0 1 73-123l17-13a230 230 0 0 1 185-39Z" fill="#ffffff"/><path d="M708 513c3 3 2 7 3 12v29c0 26 2 54 0 80-3 31-14 63-36 86-25 28-57 51-93 64l2 7v35c1 6 4 10 8 14l26 19 32 20 24 12c2 0 3 1 5 3l-19-5c-19-6-37-14-54-25-9-5-19-12-26-20-6-6-7-14-7-22 1-12 1-25 4-36l-9 2 12-8 22-14c13-7 26-15 37-24 13-9 24-19 34-31a178 178 0 0 0 29-96v-65c0-8 0-15 2-23 0-5 1-10 4-14ZM278 574c5 5 4 14 0 19l-3 7c1 3 5 5 7 6 6 3 12 7 19 9 0 4-3 5-7 5-6-1-13-3-18-6-7-3-13-8-13-16 0-6 5-9 6-14 2-4 0-7-1-11 4-1 7-2 10 1ZM328 667l11 16c14 17 29 34 47 47 17 12 35 20 53 27a714 714 0 0 0 104 29c-1 1 0 2-2 3-2 2-5 2-8 2l-25-3a478 478 0 0 1-118-44c-14-8-26-20-37-32 5 20 6 41 8 61 1 15 2 31 1 47-1 12-3 23-8 34-10 22-28 41-49 54l-14 8c2-4 6-6 9-9 13-11 24-25 34-39 6-10 12-21 14-33 4-19 3-39 3-58l-3-59 2-10c-10-11-19-26-22-41Z" fill="#000"/><g fill="#000000"><path d="M446 479c15-2 30 2 43 10 14 7 23 20 29 34 1 4 3 9 0 13-5-4-8-9-11-14-6-8-14-17-23-22-11-7-25-11-38-9-14 1-27 9-38 18l-12 11c-4-4-2-10 1-14 11-17 30-26 49-27ZM676 480c6 2 10 6 13 11 3 8 2 17-1 25-1 3-4 6-8 5s-5-5-4-9c0-6 2-14-2-18-2-3-7-4-10-4-8-1-17 3-24 7-12 7-21 17-28 28-1 2-2 6-4 6-3-2-1-8 0-11 4-13 14-24 26-31 6-5 13-8 21-10 7-2 14-2 21 1Z"/><path d="M644 506c6 0 10 5 12 11 2 9 0 17-4 25l30-10c-5 9-16 14-24 17-10 4-21 8-32 8-5 0-10 0-13-4 3-5 7-4 12-6-3-6-3-12-2-19 0-6 2-12 7-16 4-4 8-7 14-6ZM484 515c4-1 8 1 11 4 4 4 6 8 7 13 3 7 1 15 1 22h13c2 0 3 2 2 4-1 3-4 4-6 5-11 3-23 3-34 3-17 0-34-3-49-10-5-2-10-4-14-8l11 3c12 3 25 4 37 5-2-9-3-20 2-28 3-7 11-12 19-13Z"/></g><path d="M480 404c10 1 19 0 29 3 9 3 18 10 22 19 4 6 2 16-6 19-6 4-15 3-23 2-20-3-40-9-60-14l-20-4-10-2-4-4c2-4 6-6 10-7l20-7 18-3 24-2ZM656 410c8 1 15 4 22 7l9 4c2 2 3 6 1 8l-10 4c-17 4-33 11-51 12l-9 1c-3 0-6-2-8-4-3-2-4-5-4-9 0-7 2-15 8-20 4-3 11-4 16-5 8 0 17 0 26 2Z" fill="#000000"/><path d="M594 572a37 37 0 0 1 19 29c0 9-5 18-13 22l-17 7c-4 1-6 2-9 0-2-3-1-4 1-6 6-5 15-7 21-12 3-2 5-5 5-9 0-10-5-17-7-26v-5Z" fill="#000000"/><path d="M478 678c3-1 5 0 5 2 0 3-3 6-6 7-3-3-2-7 1-9ZM503 690l36 7 30 2c7 1 13 0 19 2-1 2-3 3-6 4a158 158 0 0 1-74-6c-3-1-7-3-8-6-1-2 1-4 3-3Z" fill="#000000"/><path fill-rule="evenodd" clip-rule="evenodd" d="M482 429c13 2 26 7 37 15 3-2 7-2 10 0a94 94 0 0 1 39 90c9-6 20-8 30-5-1-34 16-68 44-87 11-7 25-12 39-12 9 0 19 2 27 7l4 1 5 1c10 7 18 16 23 26 8 16 10 33 8 51-3 29-20 57-45 72-14 8-31 13-47 11-13-2-25-8-35-17-9-8-15-19-19-31-1-4-6-7-9-9-9-3-18 0-26 5l-5 7c-7 19-21 36-39 47a99 99 0 0 1-57 14c-31-1-60-18-76-45a92 92 0 0 1 30-127c18-11 41-16 62-14Zm35 19 1 4c0 2 2 3 4 5 12 8 22 19 27 33a81 81 0 0 1-56 111c-26 6-55-1-75-19a82 82 0 0 1-23-90c9-25 32-45 59-51 21-5 43-2 63 6v1Zm190-1c-1-1-1-2-3-2-8-4-17-5-26-4-15 2-29 9-40 20a88 88 0 0 0-26 77c2 13 9 26 19 36 9 7 19 11 30 12 14 1 27-4 39-11 25-18 40-52 35-82a63 63 0 0 0-23-41l-4-3-1-2Z" fill="#000000"/><path d="M404 197c2 2 0 5-1 7l-4 12a338 338 0 0 1 135 0c28 6 55 14 82 22 17 5 33 9 51 12 4 0 8 1 11 4l-4 5-7 4c15 11 30 24 41 39 4 6 8 12 10 19 1 3-1 4-3 6l-18 7c-18 7-38 5-57 1 2 4 3 7 6 9 1 2 3 3 2 6s-5 3-7 4c-14 3-30 1-44-2-22-6-44-14-65-24l-39-19-5-4 7-7-2-3-15 1-14 3 3-12c1-2-1-3-3-3l-5 4-13 13-3 5-5-1c-8-3-17-5-25-5-3 0-6 1-5 4 3 5 7 7 9 13 0 8-5 17-10 24-9 11-19 21-30 29l-22 14c-4 2-6 4-6 8l-1 30c0 3 0 7-3 9-14 14-27 32-32 51-4 14-4 27-3 41v27c-1 2-1 6-4 7l-7-2-19-7a85 85 0 0 1-38-40c-6-13-10-26-13-40a228 228 0 0 1 3-104 178 178 0 0 1 72-102c13-10 28-19 44-24l4-3a162 162 0 0 1 46-39c3-1 5-1 6 1Z" fill="#000000"/></g><g transform="translate(10 -60)"></g></g></svg>