<svg xmlns="http://www.w3.org/2000/svg" viewBox="0 0 980 980" fill="none" shape-rendering="auto"><metadata xmlns:rdf="http://www.w3.org/1999/02/22-rdf-syntax-ns#" xmlns:xsi="http://www.w3.org/2001/XMLSchema-instance" xmlns:dc="http://purl.org/dc/elements/1.1/" xmlns:dcterms="http://purl.org/dc/terms/"><rdf:RDF><rdf:Description><dc:title>Lorelei</dc:title><dc:creator>Lisa Wischofsky</dc:creator><dc:source xsi:type="dcterms:URI">https://www.figma.com/community/file/1198749693280469639</dc:source><dcterms:license xsi:type="dcterms:URI">https://creativecommons.org/publicdomain/zero/1.0/</dcterms:license><dc:rights>Remix of „Lorelei” (https://www.figma.com/community/file/1198749693280469639) by „Lisa Wischofsky”, licensed under „CC0 1.0” (https://creativecommons.org/publicdomain/zero/1.0/)</dc:rights></rdf:Description></rdf:RDF></metadata><mask id="viewboxMask"><rect width="980" height="980" rx="117.6" ry="117.6" x="0" y="0" fill="#fff" /></mask><g mask="url(#viewboxMask)"><rect fill="url(#backgroundLinear)" width="980" height="980" x="0" y="0" /><defs><linearGradient id="backgroundLinear" gradientTransform="rotate(3 0.5 0.5)"><stop stop-color="#7b6c9d"/><stop offset="1" stop-color="#c4a6ff"/></linearGradient></defs><g transform="translate(10 -60)"><path d="M533 126c2 2 0 5-1 7-6 16-19 26-34 35-17 12-37 19-57 25l7-1c23-4 47-7 70-14 22-7 43-17 63-27 6-3 11-7 17-9 4-2 8 1 9 5 2 6 0 13-2 19-4 13-11 24-20 33l31 10c28 12 53 28 80 40 13 6 27 13 41 16 11 3 22 4 34 4l16-1c2 1 4 1 4 3 1 5-1 11-3 16-4 10-10 19-17 28-9 13-21 24-35 32 6 9 11 17 19 24 10 11 23 19 37 24l5 2c1 2 0 3-1 4-2 4-6 6-10 8-8 2-16 4-24 4 4 16 4 33-3 48l-8 13c3 14 8 27 17 39 4 6 10 11 15 16l4 4c-2 3-2 6-5 8-5 7-13 11-21 14 15 15 24 35 28 55 2 11 2 24-3 34-1 3-4 7-7 7-1 0-2-1-1-2l1-9c1-8-1-16-3-24-2-11-6-21-12-31l-6-9c5 16 6 32 3 48a84 84 0 0 1-46 66c5 8 12 16 22 20 6 3 13 5 20 6l6 1c2 3-3 5-4 7-5 7-12 12-19 17-14 8-29 12-45 14l14 2c11 1 21-1 31-5 2 0 5-2 6 0s-2 6-4 7c-9 9-22 13-35 14s-27-3-38-10c-3 6-8 11-12 16-7 7-14 13-23 18-14 7-30 11-45 9-9-1-19-4-27-10l-5-7c-14-7-29-15-44-20a149 149 0 0 0-94-2 359 359 0 0 0-66 25c-13 9-28 14-44 15-9 1-19 1-28-4 0-1-3-3-1-3a103 103 0 0 0 58-17c-13 4-26 6-39 6s-27-2-38-10c-3-3-8-6-9-10l15-6 21-9-15-3a99 99 0 0 1-47-35l-4-8c-1 4-2 7-5 10h-3c-8-2-13-8-17-15-6-11-11-23-14-35-3-13-4-27 0-41-7 2-15 2-22 1-9-1-19-4-25-12-2-4-5-8-6-13l1-1 1 1 9 6c6 3 12 3 18 2a69 69 0 0 1-32-59c0-5 1-10 3-14 2-3 7-4 9-1l7 8c5 4 11 8 18 7 5 0 11-1 15-4 5-3 9-8 11-13 3-9 5-17 5-26l-3-42-2-25c0-15-3-29-2-44 0-12 2-24 5-36 2-9 6-17 11-25l17-23c-11-1-23 0-34 3l-19 4c3-12 12-19 21-25l21-11c12-6 26-7 39-4-7-14-6-29-3-44 4-16 12-31 25-42 3-3 9-7 14-6l4-1c1 2-2 5-3 8-3 8-6 17-7 26-2 13-2 27 3 39l3 6 4-9 7-10c6-13 17-22 29-30 15-10 31-18 48-24 14-5 29-7 43-11 13-3 26-8 38-13a280 280 0 0 0 66-34c5-2 9-6 13-10Z" fill="#000000"/><path d="M528 244c41 6 80 22 113 47 28 21 50 49 65 81 13 28 20 60 19 91-1 15-3 30-8 44h-2l1-21c1-30-2-59-13-87-10-30-28-57-50-79-42-40-98-62-156-63a243 243 0 0 0-196 94 207 207 0 0 0-40 139l2 25c8 0 19 0 25 7l-3 3-17 1c-12 1-24 5-33 13a64 64 0 0 0-17 39c-5 32 12 65 39 83 16 10 36 15 55 9 4-2 9-5 14-3 3 1 4 4 5 7a251 251 0 0 0 90 100c8 7 18 13 28 18 18 8 38 14 57 19l32 8c5 1 9 1 13 3l-4 1c-25 2-48-3-72-10-12-3-23-7-34-12a306 306 0 0 1-84-63l2 28c1 17 0 35-6 52-4 12-11 24-19 34-10 10-22 19-34 26-10 7-21 14-32 18l-16 5 9-9 31-20 22-17a95 95 0 0 0 32-56c2-14 2-28 2-43v-27c-10-14-22-29-27-46-17 8-38 7-55-1-17-7-32-19-43-33-12-17-19-36-21-56s2-40 15-56c9-10 22-18 35-21-4-14-6-29-6-44a234 234 0 0 1 83-173 249 249 0 0 1 199-55Z" fill="#000"/><path d="M653 320c22 22 40 49 50 79 11 28 14 57 13 87l-1 21-5 15-2 13 2 56c0 21 1 42-1 63l-3 47c-2 16-7 31-14 45-11 18-26 33-44 44-13 8-27 12-41 16l-38 11-17 3c0 1 1 2 3 2 8 5 17 5 26 4-3 7-4 14-2 22 3 7 11 11 17 14 12 6 24 7 36 9 7 6 14 14 16 24 2 8 2 16-2 23-5 10-14 18-24 23-13 8-27 14-42 18a468 468 0 0 1-222-1c-17-4-33-9-48-17-12-6-23-13-32-22-5-7-9-14-10-23 11-4 22-11 32-18 12-7 24-16 34-26 8-10 15-22 19-34 6-17 7-35 6-52l-2-28 22 23c19 15 40 30 62 40 11 5 22 9 34 12 24 7 47 12 72 10l4-1c-4-2-8-2-13-3l-32-8c-19-5-39-11-57-19l-29-17c-11-9-23-17-33-27a251 251 0 0 1-56-74c-1-3-2-6-5-7-5-2-10 1-14 3-19 6-39 1-55-9a88 88 0 0 1-39-83c1-14 7-28 17-39 9-8 21-12 33-13l17-1 3-3c-6-7-17-7-25-7l-2-25a207 207 0 0 1 40-139 243 243 0 0 1 196-94c58 1 114 23 156 63Z" fill="#ffffff"/><path d="M710 522c3 0 3 4 4 6 3 11 4 23 5 34l2 21c1 22 2 43 1 65-1 21-1 44-5 65a136 136 0 0 1-80 99c-15 7-31 11-48 13v15c1 3 3 4 5 6 12 6 23 8 36 11 12 3 24 5 36 11-3 3-7 4-11 4-7 1-15-1-23-1-12-2-24-3-36-9-6-3-14-7-17-14-2-8-1-15 2-22-9 1-18 1-26-4-2 0-3-1-3-2l17-3 38-11c14-4 28-8 41-16 18-11 33-26 44-44 7-14 12-29 14-45l3-47c2-21 1-42 1-63l-2-56 2-13ZM252 549c8 0 17 1 23 7 5 4 10 9 12 15 1 3 0 6-2 8l-13 8c-7 6-7 19 0 25 6 5 14 8 21 11 2 0 5 1 6 3-1 2-3 3-5 3-10 0-20-3-28-9-5-3-8-8-9-13-2-8-2-17 4-24 4-6 11-9 18-12-4-5-7-11-14-13-7-3-15-3-22-5l9-4Z" fill="#000"/><g fill="#000000"><path d="M446 479c15-2 30 2 43 10 14 7 23 20 29 34 1 4 3 9 0 13-5-4-8-9-11-14-6-8-14-17-23-22-11-7-25-11-38-9-14 1-27 9-38 18l-12 11c-4-4-2-10 1-14 11-17 30-26 49-27ZM676 480c6 2 10 6 13 11 3 8 2 17-1 25-1 3-4 6-8 5s-5-5-4-9c0-6 2-14-2-18-2-3-7-4-10-4-8-1-17 3-24 7-12 7-21 17-28 28-1 2-2 6-4 6-3-2-1-8 0-11 4-13 14-24 26-31 6-5 13-8 21-10 7-2 14-2 21 1Z"/><path d="M644 506c6 0 10 5 12 11 2 9 0 17-4 25l30-10c-5 9-16 14-24 17-10 4-21 8-32 8-5 0-10 0-13-4 3-5 7-4 12-6-3-6-3-12-2-19 0-6 2-12 7-16 4-4 8-7 14-6ZM484 515c4-1 8 1 11 4 4 4 6 8 7 13 3 7 1 15 1 22h13c2 0 3 2 2 4-1 3-4 4-6 5-11 3-23 3-34 3-17 0-34-3-49-10-5-2-10-4-14-8l11 3c12 3 25 4 37 5-2-9-3-20 2-28 3-7 11-12 19-13Z"/></g><path d="M524 402c7 3 12 9 15 16 4 6 6 12 4 19-1 2-2 5-4 3-3-2-5-6-6-9l-14 2-26 3-39 4c-12 1-24 0-36-1-3 0-7-1-9-3-3-2-2-7 1-8 9-3 20-2 30-4 7-1 14-4 20-6 9-3 17-7 26-9l20-5c5-1 12-4 18-2ZM631 404c11 0 19 6 30 8 6 2 14 1 20 5 2 1 3 4 2 7-2 2-5 2-8 2l-14 1-25 6-23 2-5 18-3 3-2-5c-1-10 0-21 5-30 2-4 4-9 8-12 4-4 10-6 15-5Z" fill="#000000"/><path d="M609 602c1 9-4 16-9 23-4 3-9 6-15 6s-13-3-19-5c-4-2-8-3-11-6l5-4c9-1 17 3 25 4 4 0 7-3 9-6 5-5 9-10 15-12Z" fill="#000000"/><path d="M608 667c2 0 4 0 5 2l-1 15c5-1 10-4 16-2 0 4-4 7-7 9l-35 12c-17 4-34 7-51 8-7 1-15-1-22-3-2-1-4-1-4-4 4-2 9 0 12-1 2-5 7-7 11-10l31-19c3-1 7-4 10-4 4-1 7 4 11 4 8-2 16-7 24-7ZM607 712c1 4 1 8-1 11-2 5-7 9-12 11-6 2-12 3-18 2-2 0-6-2-6-5 1-2 5-2 7-3 8-4 18-7 25-13 2-1 3-3 5-3Z" fill="#000000"/><path d="M604 142c4 3 4 10 3 15-3 16-11 31-22 42 24 6 46 16 68 28l37 19c14 7 29 15 45 19 10 3 21 4 31 4l18-1 7 1v11c-2 7-6 14-10 21-11 18-25 34-43 45l-12 6c13 10 28 21 36 36 2 3 5 8 3 12-4 4-11 5-16 6-10 1-21 2-31 1-18-2-35-5-52-9-26-6-51-14-73-28l10 17c1 2 3 6 0 8-4 3-9 5-14 5a176 176 0 0 1-160-53c-2 11-5 23-9 34-2 6-5 13-10 18l-6 5-14-10c-7-7-12-15-16-24-7 15-17 27-28 40l-23 24-14 13-2 2-6 42c-1 20-1 40 1 60 0 3 1 8-2 10-2 2-5 1-7 0l-17-6c-13-7-25-17-35-28a241 241 0 0 1-34-74 165 165 0 0 1 52-162c-7-5-11-11-13-19a81 81 0 0 1 25-77c4-3 9-7 14-6l5-1-5 13c-6 15-9 31-6 48 1 6 3 13 6 18l5-11c6-7 14-14 22-19 21-14 44-23 67-31 22-7 45-11 68-14 24-4 49-7 72-14 20-7 40-16 60-26 6-3 11-7 17-9 2-2 5-3 8-1Z" fill="#000000"/></g><g transform="translate(10 -60)"></g></g></svg>