<svg xmlns="http://www.w3.org/2000/svg" viewBox="0 0 980 980" fill="none" shape-rendering="auto"><metadata xmlns:rdf="http://www.w3.org/1999/02/22-rdf-syntax-ns#" xmlns:xsi="http://www.w3.org/2001/XMLSchema-instance" xmlns:dc="http://purl.org/dc/elements/1.1/" xmlns:dcterms="http://purl.org/dc/terms/"><rdf:RDF><rdf:Description><dc:title>Lorelei</dc:title><dc:creator>Lisa Wischofsky</dc:creator><dc:source xsi:type="dcterms:URI">https://www.figma.com/community/file/1198749693280469639</dc:source><dcterms:license xsi:type="dcterms:URI">https://creativecommons.org/publicdomain/zero/1.0/</dcterms:license><dc:rights>Remix of „Lorelei” (https://www.figma.com/community/file/1198749693280469639) by „Lisa Wischofsky”, licensed under „CC0 1.0” (https://creativecommons.org/publicdomain/zero/1.0/)</dc:rights></rdf:Description></rdf:RDF></metadata><mask id="viewboxMask"><rect width="980" height="980" rx="117.6" ry="117.6" x="0" y="0" fill="#fff" /></mask><g mask="url(#viewboxMask)"><rect fill="url(#backgroundLinear)" width="980" height="980" x="0" y="0" /><defs><linearGradient id="backgroundLinear" gradientTransform="rotate(231 0.5 0.5)"><stop stop-color="#757e7a"/><stop offset="1" stop-color="#9aa0ac"/></linearGradient></defs><g transform="translate(10 -60)"><path d="M495 234c28 1 56 6 84 15a201 201 0 0 1 100 65c19 25 31 55 35 86a361 361 0 0 1 2 101l-5 34-4 20c-1 2-1 2-3 2-2-4-2-8-2-12-1-15 1-29 2-44 1-24 3-48 1-72l-6-45c-7-28-20-54-40-75-18-18-40-33-63-43-22-9-44-15-67-19-18-3-36-4-54-4a277 277 0 0 0-128 29c-13 9-25 20-35 32a276 276 0 0 0-55 139c-1 24 0 47 8 70l7 15 12 1 1 3c-3 2-7 2-11 3-10 2-20 6-29 12-7 5-14 11-18 19-5 10-3 22-1 33 5 19 17 37 33 49 11 9 25 14 39 16 10 2 20 0 30-1 5 4 8 12 11 17l18 27a136 136 0 0 0 66 50c22 9 45 14 68 19l41 8 17 5v4h-12a535 535 0 0 1-67-8 255 255 0 0 1-84-33c-11-7-21-16-29-27a214 214 0 0 1-16 123c-15 27-40 48-70 57-3 1-7 2-10 1-2 0-2-1-2-3 1-3 4-5 6-6 12-8 26-14 38-23 13-11 24-23 31-38 6-15 10-32 12-49 2-13 3-26 2-40l-4-38-18-36-19 4a88 88 0 0 1-75-38 93 93 0 0 1-20-58c0-9 3-18 8-25s12-13 19-17c5-4 12-6 18-8l-9-24c-5-22-5-45-2-67a292 292 0 0 1 63-149c9-10 18-19 29-26 7-4 14-5 20-9 43-19 90-25 137-22Z" fill="#000"/><path d="M475 243a276 276 0 0 1 121 23c23 10 45 25 63 43 20 21 33 47 40 75l6 45c2 24 0 48-1 72-1 15-3 29-2 44 0 4 0 8 2 12l-1 20c-2 5-2 10-2 16-2 24-2 49-6 74-1 12-3 25-8 36-3 9-8 17-15 24-12 13-27 24-43 33-19 11-39 16-58 24-5 2-10 4-13 8 8 1 15 0 23-2-5 12-6 24-6 36 0 5-1 11 1 16 3 5 8 9 13 12l35 13c22 8 43 18 65 27 2 4 5 7 6 12 6 11 7 23 3 35-5 13-15 24-27 31-16 11-36 19-55 24a494 494 0 0 1-235-7c-20-7-40-14-58-24-14-8-29-18-40-31-6-8-11-19-12-29a122 122 0 0 0 86-107c4-24 4-49 0-73 8 11 18 20 29 27l27 14a331 331 0 0 0 124 27h12v-4l-17-5-41-8c-23-5-46-10-68-19-13-6-27-13-39-21-10-9-19-18-27-29l-18-27c-3-5-6-13-11-17-10 1-20 3-30 1-14-2-28-7-39-16a94 94 0 0 1-33-49c-2-11-4-23 1-33 4-8 11-14 18-19 9-6 19-10 29-12 4-1 8-1 11-3l-1-3-12-1-7-15c-8-23-9-46-7-70a276 276 0 0 1 54-139c10-12 22-23 35-32a277 277 0 0 1 128-30Z" fill="#ffffff"/><path d="M260 571c4 0 7 0 11 2 5 1 11 4 14 8 2 3 2 7 0 10-5 6-12 10-16 16 6 4 14 6 21 9 4 1 8 3 11 6l1 3-8-2-24-7c-4-1-8-3-9-7-1-3 1-7 3-10l15-13c-4-7-15-8-19-15ZM703 577l2 3 2 16a483 483 0 0 1-2 89c-2 11-5 23-10 33a198 198 0 0 1-106 71c-1 14-3 31-2 47l5 5c8 6 18 9 27 12a451 451 0 0 1 68 28c7 4 13 9 18 15-5 1-10-1-16-2-22-9-43-19-65-27l-35-13c-5-3-10-7-13-12-2-5-1-11-1-16 0-12 1-24 6-36-8 2-15 3-23 2 3-4 8-6 13-8 19-8 39-13 58-24 16-9 31-20 43-33 7-7 12-15 15-24 5-11 7-24 8-36 4-25 4-50 6-74 0-6 0-11 2-16Z" fill="#000"/><path d="M670 463c7 1 14 4 18 10 6 7 7 15 8 24 0 4-1 9-3 12-3 4-9 4-12 0-2-3-2-8-3-12 0-7-3-15-10-18 10 15 11 33 7 50-2 9-6 16-13 22-4 4-11 6-17 4-6-1-10-6-13-11-4-8-6-16-6-25l-5 14c-1 3-2 6-5 9-3-3-3-6-4-10a83 83 0 0 1 34-61c7-5 15-8 24-8ZM455 468c14 0 29 5 40 14 14 10 24 25 28 42v14c-1 1-2 2-4 1a163 163 0 0 0-17-27c1 14-2 28-11 39-6 8-15 14-26 15-11 0-21-7-27-16-8-12-9-27-6-41 2-9 7-17 13-23l-13 5c-6 5-13 9-18 16l-5 6c-3 4-9 4-12 0-3-3-3-8-1-12 6-8 13-16 22-22 11-8 24-11 37-11Z" fill="#000000"/><path d="M659 498c1 7-1 13-3 20l-5 9c-1 2-4 2-5 1l-4-7c-3-6-5-13-4-19 0-3 2-4 5-4 3 1 4 3 5 5 1-2 2-6 4-7 2-2 6-1 7 2ZM475 500c4 0 6 3 7 6 1 8-2 14-4 22 0 4-2 8-6 11-2 1-4 0-5-2l-10-15-3-8c-1-4-1-8 2-12 2-2 5-2 8 0l5 6c1-4 2-7 6-8Z" fill="#fff"/><path d="M479 386c16 1 33 7 46 17 3 3 7 5 8 9 1 2-1 5-3 4-8-1-15-5-23-7-7-3-15-5-23-5-7-1-15 0-22 1-15 2-30 9-43 16l-21 9-1-1c1-4 3-9 6-12 6-10 17-16 27-21 15-7 32-11 49-10ZM673 390c5 2 11 5 15 10 4 4 5 9 4 15l-23-7c-7-2-13-1-20-2-7 0-15 1-21 5l-13 8h-3c-1-3 0-6 2-8 5-9 13-15 22-18 12-4 24-6 37-3Z" fill="#000000"/><path d="M597 505h1l3 15 3 26 8 13 6 12c2 5 2 10 5 14 3 5 5 10 5 16 0 9-6 17-14 20l-19 8c-5 3-9 5-15 5-5 0-11 0-13-5-2-2 0-4 2-5l12-3 16-5 13-5c6-2 9-8 7-14l-5-8-7-17-7-19c-4-8-6-17-5-26 0-7 1-15 4-22Z" fill="#000000"/><path fill-rule="evenodd" clip-rule="evenodd" d="m527 664 16 4 6 1a258 258 0 0 0 69 8c8 0 17 2 24 6 4 2 5 4 5 8l-6-2c-9-2-17-2-26-2h-8c1 6 0 11-2 16h3l12 1c2 0 4 1 5 3 0 3-2 3-4 4h-23a2932 2932 0 0 0-86-1l-2 1-1 1-3-2-27-2a3065 3065 0 0 0-8 0c-3-1-7-1-10-3l14-1h29c0-9-1-21 2-30-9 1-19 2-28 5-8 3-15 7-20 14l-4 4c-1 2-2 5-4 6l-2-1c0-4 0-10 2-14l11-11c10-7 24-10 36-12 10-1 20-2 30-1Zm-16 10a104 104 0 0 1 28 4l16 4v21l-18 1h-23v-3c1-9 2-19-3-27Zm89 13c-13 0-25-1-37-4 1 7 1 14-1 20h39c-2-5-2-11-1-16Z" fill="#000000"/><path d="M614 163c10 5 13 18 9 28-5 13-15 23-26 32-10 8-21 16-32 22-10 7-21 13-32 18-4 2-9 5-14 5-3 0-6-3-7-6l-2-8a146 146 0 0 1-8-58c0-6 2-13 6-17 3-4 9-4 13-1l5 10c3 10 2 23 3 33l14-19a148 148 0 0 1 48-40c8-3 16-4 23 1Z" fill="#000000"/></g><g transform="translate(10 -60)"></g></g></svg>